Coordinates
version=1
nRows=6
nColumns=63
inDegrees=yes

Units are S.I. units (second, meters, Newtons, ...)
If the header above contains a line with 'inDegrees', this indicates whether rotational values are in degrees (yes) or radians (no).

endheader
time	pelvis_tilt	pelvis_list	pelvis_rotation	pelvis_tx	pelvis_ty	pelvis_tz	hip_flexion_r	hip_adduction_r	hip_rotation_r	knee_angle_r	knee_angle_r_beta	ankle_angle_r	subtalar_angle_r	mtp_angle_r	hip_flexion_l	hip_adduction_l	hip_rotation_l	knee_angle_l	knee_angle_l_beta	ankle_angle_l	subtalar_angle_l	mtp_angle_l	L5_S1_Flex_Ext	L5_S1_Lat_Bending	L5_S1_axial_rotation	L4_L5_Flex_Ext	L4_L5_Lat_Bending	L4_L5_axial_rotation	L3_L4_Flex_Ext	L3_L4_Lat_Bending	L3_L4_axial_rotation	L2_L3_Flex_Ext	L2_L3_Lat_Bending	L2_L3_axial_rotation	L1_L2_Flex_Ext	L1_L2_Lat_Bending	L1_L2_axial_rotation	L1_T12_Flex_Ext	L1_T12_Lat_Bending	L1_T12_axial_rotation	Abs_r3	Abs_r2	Abs_r1	Abs_t1	Abs_t2	neck_flexion	neck_bending	neck_rotation	arm_flex_r	arm_add_r	arm_rot_r	elbow_flex_r	pro_sup_r	wrist_flex_r	wrist_dev_r	arm_flex_l	arm_add_l	arm_rot_l	elbow_flex_l	pro_sup_l	wrist_flex_l	wrist_dev_l
0.000000	-1.279095	-4.183439	95.368445	-0.108981	0.758955	0.679303	4.240731	-6.253547	-20.050300	13.225478	0.230828	32.503366	16.720764	0.000000	7.889919	1.224312	-7.029141	13.868624	0.242053	34.956519	17.209682	0.000000	0.190184	-0.475220	-0.082060	0.353190	-0.632042	-0.087189	0.312453	-1.155450	-0.087189	0.217361	-1.155450	-0.071802	0.176605	-0.969068	-0.066674	0.108671	-0.736116	-0.061545	1.358463	-5.375782	-0.456393	0.000000	0.000000	25.580655	-0.474429	-11.675877	14.089784	-3.927102	44.286129	39.690185	-0.014698	-24.359270	25.564184	27.112523	-2.339280	79.368968	32.411698	57.181659	3.826767	3.099941
0.016949	-1.342353	-3.927835	94.422544	-0.107796	0.758689	0.677750	4.386903	-6.252298	-18.353532	13.792765	0.240729	32.956619	16.014110	0.000000	7.292065	1.150470	-7.992399	13.587810	0.237152	35.014997	17.197386	0.000000	0.182713	-0.479407	0.084288	0.339316	-0.637611	0.089556	0.300179	-1.165630	0.089556	0.208822	-1.165630	0.073752	0.169667	-0.977606	0.068484	0.104402	-0.742601	0.063216	1.305099	-5.423146	0.468785	0.000000	0.000000	25.477357	-0.426635	-11.549869	14.846305	-4.186627	47.784784	38.787745	3.054740	-20.606607	24.628211	27.013035	-2.070839	79.253266	31.384589	61.270955	4.680709	3.443987
0.033898	-1.379772	-3.716598	93.633792	-0.106804	0.758461	0.676490	4.482561	-6.232352	-16.974280	14.214974	0.248098	33.320947	15.485340	0.000000	6.789268	1.082036	-8.790727	13.324098	0.232549	35.072964	17.194730	0.000000	0.177114	-0.480969	0.224333	0.328918	-0.639688	0.238354	0.290981	-1.169427	0.238354	0.202424	-1.169427	0.196291	0.164468	-0.980791	0.182271	0.101203	-0.745020	0.168250	1.265107	-5.440812	1.247673	0.000000	0.000000	25.418029	-0.426157	-11.441969	15.470195	-4.388881	50.615313	37.994960	6.667819	-17.177895	23.814555	26.894380	-1.886377	79.068926	30.591375	64.919008	5.297814	3.622818
0.050847	-1.393627	-3.545808	92.989537	-0.105987	0.758270	0.675497	4.532576	-6.195226	-15.884944	14.505697	0.253172	33.603138	15.115771	0.000000	6.373902	1.018078	-9.437064	13.078378	0.228261	35.129548	17.200079	0.000000	0.173166	-0.480176	0.340294	0.321586	-0.638634	0.361562	0.284494	-1.167500	0.361562	0.197911	-1.167500	0.297757	0.160802	-0.979175	0.276489	0.098947	-0.743792	0.255220	1.236904	-5.431846	1.892611	0.000000	0.000000	25.397217	-0.466938	-11.352004	15.972866	-4.539636	52.836400	37.304522	10.737278	-14.059458	23.110961	26.760064	-1.776371	78.826485	30.009092	68.150898	5.701962	3.656765
0.067797	-1.386194	-3.411547	92.477129	-0.105330	0.758110	0.674747	4.541816	-6.142437	-15.057921	14.678530	0.256189	33.809980	14.886717	0.000000	6.038341	0.957666	-9.944352	12.851540	0.224302	35.183875	17.211798	0.000000	0.170646	-0.477300	0.434388	0.316906	-0.634809	0.461537	0.280354	-1.160507	0.461537	0.195031	-1.160507	0.380090	0.158462	-0.973310	0.352940	0.097507	-0.739338	0.325791	1.218906	-5.399313	2.415936	0.000000	0.000000	25.409466	-0.542920	-11.279801	16.365729	-4.644664	54.506726	36.709126	15.175860	-11.237620	22.505177	26.613594	-1.731299	78.536484	29.614779	70.991702	5.917033	3.566160
0.084746	-1.359750	-3.309892	92.083917	-0.104815	0.757979	0.674215	4.515148	-6.075504	-14.465609	14.747066	0.257385	33.948264	14.779493	0.000000	5.774956	0.899869	-10.325529	12.644475	0.220688	35.235071	17.228251	0.000000	0.169333	-0.472612	0.508835	0.314469	-0.628574	0.540637	0.278198	-1.149108	0.540637	0.193531	-1.149108	0.445231	0.157243	-0.963750	0.413428	0.096757	-0.732076	0.381626	1.209530	-5.346279	2.829988	0.000000	0.000000	25.449321	-0.648047	-11.225187	16.660194	-4.709735	55.684972	36.201466	19.896308	-8.698704	21.984951	26.458475	-1.741637	78.209463	29.385471	73.466498	5.966908	3.371335
